<svg width="71" height="71" viewBox="0 0 71 71" fill="none" xmlns="http://www.w3.org/2000/svg">
<path d="M12 30L13.3471 34.1459H17.7063L14.1796 36.7082L15.5267 40.8541L12 38.2918L8.47329 40.8541L9.82037 36.7082L6.29366 34.1459H10.6529L12 30Z" fill="#989A3E"/>
<path d="M60 30L61.3471 34.1459H65.7063L62.1796 36.7082L63.5267 40.8541L60 38.2918L56.4733 40.8541L57.8204 36.7082L54.2937 34.1459H58.6529L60 30Z" fill="#989A3E"/>
<path d="M36 5L37.3471 9.1459H41.7063L38.1796 11.7082L39.5267 15.8541L36 13.2918L32.4733 15.8541L33.8204 11.7082L30.2937 9.1459H34.6529L36 5Z" fill="#989A3E"/>
<path d="M36 54L37.3471 58.1459H41.7063L38.1796 60.7082L39.5267 64.8541L36 62.2918L32.4733 64.8541L33.8204 60.7082L30.2937 58.1459H34.6529L36 54Z" fill="#989A3E"/>
<mask id="mask0_9_49" style="mask-type:alpha" maskUnits="userSpaceOnUse" x="0" y="0" width="71" height="71">
<line x1="23.5" y1="21" x2="23.5" y2="54" stroke="black" stroke-width="5"/>
<line x1="21" y1="51.5" x2="51" y2="51.5" stroke="black" stroke-width="5"/>
<line x1="48.5" y1="54" x2="48.5" y2="38" stroke="black" stroke-width="5"/>
<line x1="48.5" y1="17" x2="48.5" y2="30" stroke="black" stroke-width="5"/>
<line x1="21" y1="18.5" x2="51" y2="18.5" stroke="black" stroke-width="5"/>
<circle cx="35.5" cy="35.5" r="34" stroke="url(#paint0_linear_9_49)" stroke-width="3"/>
</mask>
<g mask="url(#mask0_9_49)">
<rect x="-8" y="-4" width="88" height="82" fill="url(#paint1_linear_9_49)"/>
</g>
<defs>
<linearGradient id="paint0_linear_9_49" x1="35.5" y1="0" x2="35.5" y2="71" gradientUnits="userSpaceOnUse">
<stop stop-color="#00B152"/>
<stop offset="1" stop-color="#0D2417" stop-opacity="0.38"/>
</linearGradient>
<linearGradient id="paint1_linear_9_49" x1="36" y1="-4" x2="36" y2="78" gradientUnits="userSpaceOnUse">
<stop stop-color="#02BE7B"/>
<stop offset="1" stop-color="#7000FF" stop-opacity="0.76"/>
</linearGradient>
</defs>
</svg>
